<?xml version="1.0" ?><!DOCTYPE svg  PUBLIC '-//W3C//DTD SVG 1.1//EN'
        'http://www.w3.org/Graphics/SVG/1.1/DTD/svg11.dtd'>
<svg width="19" height="18" viewBox="0 0 19 18" fill="none" xmlns="http://www.w3.org/2000/svg"> <path fill-rule="evenodd" clip-rule="evenodd" d="M9.73347 17.5549H1.00577C0.450134 17.5549 0 17.121 0 16.586V0.968889C0 0.433698 0.450205 0 1.00577 0H17.2173C17.7727 0 18.223 0.433698 18.223 0.968889V16.586C18.223 17.1211 17.7726 17.5549 17.2173 17.5549H12.5736V10.7567H14.9423L15.2969 8.1073H12.5736V6.41583C12.5736 5.64877 12.7947 5.12604 13.9365 5.12604L15.3928 5.12543V2.75579C15.141 2.7235 14.2765 2.65137 13.2707 2.65137C11.171 2.65137 9.73347 3.88605 9.73347 6.15344V8.1073H7.3587V10.7567H9.73347V17.5549Z" fill="white"></path> </svg>