<svg width="19" height="16" viewBox="0 0 19 16" fill="none" xmlns="http://www.w3.org/2000/svg"> <path fill-rule="evenodd" clip-rule="evenodd" d="M18.5479 2.27513C17.8784 2.56887 17.1574 2.76751 16.4012 2.85627C17.1735 2.39981 17.766 1.67603 18.0452 0.813829C17.3222 1.23648 16.5232 1.54395 15.6696 1.70878C14.9894 0.99134 14.0171 0.543335 12.9411 0.543335C10.8778 0.543335 9.20386 2.19694 9.20386 4.23621C9.20386 4.52572 9.23595 4.80678 9.30013 5.07727C6.19292 4.92301 3.43869 3.45431 1.59362 1.21746C1.27167 1.76478 1.0877 2.39981 1.0877 3.07604C1.0877 4.35666 1.74765 5.48724 2.75094 6.14974C2.13912 6.13178 1.56154 5.96378 1.05668 5.68905V5.73449C1.05668 7.5244 2.34556 9.0174 4.05692 9.35551C3.74353 9.44215 3.41302 9.48548 3.07182 9.48548C2.83116 9.48548 2.59584 9.46329 2.36802 9.41997C2.84399 10.8865 4.22378 11.9548 5.86028 11.9833C4.58103 12.9744 2.96807 13.5651 1.21712 13.5651C0.915495 13.5651 0.617075 13.5482 0.325073 13.5144C1.97975 14.5604 3.94569 15.1722 6.05602 15.1722C12.9336 15.1722 16.6932 9.5457 16.6932 4.66519C16.6932 4.50459 16.69 4.34398 16.6836 4.18655C17.4141 3.66564 18.0484 3.01582 18.5479 2.27513Z" fill="white"></path> </svg>