<svg xmlns="http://www.w3.org/2000/svg" viewBox="0 0 391.9 320.38"><defs><style>.cls-1{fill:#1c4923;}.cls-2{fill:#fed00c;}</style></defs><g id="Layer_2" data-name="Layer 2"><g id="Layer_1-2" data-name="Layer 1"><path class="cls-1" d="M118.33,86.89S103.68,93.53,90.9,100.7,35.47,124.54,18,164.28s-15,46.13-14,59.22,7.56,42.18,28.33,62.33,60.5,35.22,97.28,29.61,70.2-14.33,105.38-33.66,52.32-28.94,52.32-28.94l99.12-20.3V188.22L370.47,170l.94-6.35,15-5V90.1l-30-11.53L263.26,98.83s9.66-28.36-.94-47.38S221.49,2.83,200,3.77s-49.25,7.79-58,19.32-22.12,31.79-22.44,41.14S118.33,86.89,118.33,86.89Z"/><path class="cls-2" d="M109.11,200.66q-3.58,6.22-9.42,7.15l-41.78,6.61L57,199.92l41.78-6.61c1.56-.25,2.24-1.94,2-5.09s-1.08-4.59-2.64-4.35l-30.4,4.82q-5.84.92-10.13-4t-4.82-12.87a24.92,24.92,0,0,1,2.95-14.05q3.63-6.41,9.55-7.35l41.74-6.6.93,14.5-41.74,6.6q-2.34.38-2,5.09t2.64,4.23l30.39-4.81q5.83-.93,10.14,4t4.68,13A25.19,25.19,0,0,1,109.11,200.66Z"/><path class="cls-2" d="M299.77,128l-40.32,6.39.6,9.31,37.69-6,.93,14.44-37.7,6,.6,9.43,40.32-6.38.93,14.5-51.61,8.17-4-62.19,51.61-8.17Z"/><path class="cls-2" d="M366.26,145.72a23.12,23.12,0,0,1-3.79,14.83q-4.19,6.31-10.75,7.36l-28.42,4.5a12.73,12.73,0,0,1-11.52-3.84q-5-4.92-5.54-13.35l-1.46-22.81a23.42,23.42,0,0,1,3.74-14.77q4.23-6.37,10.8-7.42l28.42-4.5a12.71,12.71,0,0,1,11.47,3.9q5.06,5,5.59,13.29Zm-12.76-21q-.33-5.19-4.83-4.48l-28.42,4.5c-3,.48-4.39,2.44-4.17,5.91l1.46,22.81q.33,5.17,4.83,4.47l28.42-4.5c3-.48,4.39-2.44,4.17-5.9Z"/><path class="cls-2" d="M111.62,253.28a17.87,17.87,0,0,1-2.59,11,11.59,11.59,0,0,1-8.17,5.54L60.6,276.22l-3.42-53.36,39.56-6.26a9.28,9.28,0,0,1,8.62,2.88q3.49,3.59,3.91,10,.47,7.4-3.52,12.26Q111.09,245,111.62,253.28ZM98.05,237q2.08-.33,1.83-4.27T97.54,229l-29.87,4.73.51,8Zm2,20.37q2.09-.33,1.83-4.37c-.17-2.7-1-3.94-2.35-3.72L69,254.15l.51,8.09Z"/><path class="cls-2" d="M167,242.31A19.81,19.81,0,0,1,163.75,255a13.36,13.36,0,0,1-9.22,6.31l-24.39,3.86a10.91,10.91,0,0,1-9.88-3.29q-4.29-4.21-4.76-11.46l-1.25-19.57a20.06,20.06,0,0,1,3.21-12.67q3.63-5.47,9.26-6.37L151.11,208a10.92,10.92,0,0,1,9.85,3.35q4.33,4.26,4.79,11.4Zm-10.95-18q-.28-4.44-4.14-3.84l-24.39,3.86c-2.57.41-3.77,2.1-3.58,5.07l1.26,19.57q.28,4.45,4.14,3.84l24.39-3.86c2.57-.41,3.77-2.1,3.58-5.06Z"/><path class="cls-2" d="M216.38,251.56l-9.65,1.53-27.24-32,2.3,36-9.69,1.54-3.42-53.36,9.7-1.53,27.22,31.7-2.28-35.65L213,198.2Z"/><path class="cls-2" d="M266.07,243.69,234,248.78a10.93,10.93,0,0,1-9.88-3.29q-4.29-4.23-4.76-11.46l-1.25-19.57a19.92,19.92,0,0,1,3.21-12.67q3.63-5.47,9.26-6.37l32.11-5.09.8,12.45-32.11,5.08c-2.58.41-3.77,2.09-3.58,5.06L229,232.49c.19,3,1.58,4.25,4.15,3.84l22.42-3.55-.52-8.09-13.12,2.08-.79-12.39L264,210.77Z"/><path class="cls-2" d="M314.51,219a20.22,20.22,0,0,1-3.16,12.71,13.27,13.27,0,0,1-9.23,6.31l-32,5.08-3.42-53.36,32-5.07a10.86,10.86,0,0,1,9.85,3.39,17.17,17.17,0,0,1,4.71,11.37Zm-37.35-18.35L279,229.08l22.34-3.54q3.71-.58,3.42-5l-1.25-19.58q-.28-4.44-4-3.86Z"/><path class="cls-2" d="M369.1,227.38l-9.66,1.53-1.08-17-31.56,5,1.09,17-9.7,1.53-2.36-36.87a21.36,21.36,0,0,1,2.5-12q3-5.49,8.15-6.3l27.42-4.34q5.13-.81,8.83,3.61a18.4,18.4,0,0,1,4,11ZM326,204.47l31.56-5-.48-7.43c-.17-2.7-1-3.93-2.38-3.71l-27.42,4.34c-1.34.21-1.93,1.67-1.75,4.37Z"/><path class="cls-2" d="M230.88,124l-3.51-2.49,10.88-24.39,12.91-9a60,60,0,0,0-3.08-31l-10.8-13L232,33.72a59.53,59.53,0,0,0-31.35-14.66l-12.42,5.57-23.12,1.83-.12-1.6a60,60,0,0,0-26.5,26.59L147,46.07l8.49,18L144.61,89l-12-3a59.86,59.86,0,0,0,27,42.73l.2-16.88L187,110.48l14.78,17.45-11.5,10.31A59.7,59.7,0,0,0,230.88,124Zm-10-42.12c-7.51,1.35-15,2.69-22.74,4.22l-9.33,19.07,5.81-20.43h0c-4.71-6.42-9.26-13.14-13.72-20h0l-19-.91,19.29-3.26v0c4.49-6.3,9.08-12.37,13.85-18.18h0l-4.41-13.87,9.25,12.66c7.87,3,15.72,6,23.24,8.89v0l11.39-4.15-8.93,7.89c-.64,8.3-1.12,16.8-1.48,25l10.85,14.87Z"/><path class="cls-2" d="M127.1,104.17c-24.69,7.85-49.23,19-69,35.27l81.68-14.77A69.62,69.62,0,0,1,127.1,104.17ZM99.6,123.56a244.57,244.57,0,0,1,23.09-9.25q1.22,2.34,2.6,4.61Z"/><path class="cls-2" d="M49.26,216.85l-8.76.05V199.52l8.76-3.12v-6.15l-8.76.05V156.78a114.06,114.06,0,0,0-7.3,9.82c-23.14,35-19.22,81.54,7.3,110.32v-50.8L49.26,223Zm-17,32a83.72,83.72,0,0,1,0-62.9Z"/><path class="cls-2" d="M375.88,171.54l-.13-2.47,14.85-6.56V89.33l-29.66-13L269,92.93a78.56,78.56,0,0,0-20.61-69.09A77.57,77.57,0,0,0,192.13,0a78.21,78.21,0,0,0-65.37,35.26c-10.16,2.67-43.32,13-68.4,39.12,0,0,35.64-22.92,63.15-29.79A79.68,79.68,0,0,0,117.75,54C105,57.75,75.46,68.42,52.65,92.21c0,0,35.38-22.75,62.86-29.71a77,77,0,0,0-1.28,8.72c-11.29,3.09-43.07,13.56-67.3,38.83,0,0,39.09-25.14,67-30.65,0,2,.12,4.09.31,6.14-45.39,16.61-78,40.41-97.14,70.8-34.16,54.36-12.88,117,26.39,143.78,19.52,13.44,43.32,20.26,70.73,20.26h0c56.8,0,114.73-29,144.22-46.3,8.27-4.87,16.13-9.77,24-15L391.9,236.66V183.82Zm7.79,58.25L279.29,251.32c-6.76,4.5-15.09,9.83-25,15.67-62.57,36.7-149,65.68-206.11,26.35C10.32,267.51-6.28,209,24.06,160.72c22-35,59.9-56.19,99.25-69.66a70,70,0,1,1,134.18,12.31L359.93,84.85l22.44,9.85v60.94l-14.91,8,.28,10.8,6.25,5.23,9.68,9.5Z"/><path class="cls-2" d="M47.6,283.71c1.53,1.29,3.09,2.55,4.73,3.74C107,327.4,194,298.62,253.61,265.83c9.57-5.28,17.62-10.1,24.28-14.26L62.94,290.44Zm182.88-15.2c-29.16,14.1-71.32,30.18-111.92,30.18a121.41,121.41,0,0,1-32.33-4.09Z"/><path class="cls-2" d="M242.73,125a69.17,69.17,0,0,1-23.87,16.44L213,151.1l-6.93,1.1-.44-6.82a69.28,69.28,0,0,1-11.33,1.19l2.93,45.79,11.29-1.79L207,166.64l7.12-1.13,20.27,21L249.83,184l-26.45-27.13Z"/><path class="cls-2" d="M178.09,145.13l3.19,49.76,11.29-1.79-3-46.58A70.19,70.19,0,0,1,178.09,145.13Z"/><path class="cls-2" d="M170.87,143.16a69.2,69.2,0,0,1-15-7.07l-27.49,4.36q-6.57,1-10.79,7.42a23.28,23.28,0,0,0-3.74,14.77l1.46,22.81q.54,8.42,5.54,13.35a12.71,12.71,0,0,0,11.51,3.83l28.42-4.5q6.57-1,10.76-7.36A23.1,23.1,0,0,0,175.34,176l-1.46-22.81A21.17,21.17,0,0,0,170.87,143.16Zm-11,40.47-28.42,4.5q-4.5.72-4.83-4.47l-1.46-22.81q-.33-5.19,4.17-5.91l28.42-4.49q4.5-.72,4.83,4.48L164,177.74C164.26,181.19,162.87,183.16,159.87,183.63Z"/><path class="cls-2" d="M367.08,60.54,366,54.19A67.12,67.12,0,0,0,364,45.33a13.89,13.89,0,0,0-5-6.76,17.43,17.43,0,0,0-8.12-3.23,26.24,26.24,0,0,0-3.58-.25h0a31.85,31.85,0,0,0-5.29.47,28.18,28.18,0,0,0-8.7,2.89,17.5,17.5,0,0,0-6.44,5.8l-.05.07h0a14.41,14.41,0,0,0-9.2-3.13h0a87.75,87.75,0,0,0-12.92,1.59L296,44.28l-5.91,1,.28,1.61a18.91,18.91,0,0,0-2.85-.37c-.39,0-.81,0-1.23,0h0a48.23,48.23,0,0,0-7.95.82l-12.41,2.14-5.91,1,1,5.92,6.38,37.13,1,5.91,5.92-1,12.31-2.12,5.92-1-.66-3.84H298l.48,2.82,5.92-1,12.32-2.12,1.74-.3,2-.34,11.44-2,5.91-1-.4-2.35a18.83,18.83,0,0,0,4.43,1.16,24.5,24.5,0,0,0,3.57.25,31.67,31.67,0,0,0,5.29-.47,27.89,27.89,0,0,0,8.71-2.89,17.39,17.39,0,0,0,6.44-5.79,13.92,13.92,0,0,0,2.33-8A66.84,66.84,0,0,0,367.08,60.54ZM301.64,77.11h0l-.72-4.18Zm-8.88-4.25a10.92,10.92,0,0,0,1.07-.68,10.92,10.92,0,0,1-1.07.68,11.9,11.9,0,0,1-1.29.61A11.9,11.9,0,0,0,292.76,72.86Zm-6.49-20.37h0ZM284.79,62l.52,3-.52-3c-.05-.23-.09-.46-.15-.66C284.7,61.51,284.74,61.74,284.79,62Zm1.58,12.89c.5-.09,1-.19,1.45-.29-.46.1-.95.2-1.45.29l-3.31.56ZM273.31,92.49l6.16-1h0Zm31.41-5.39h0l11-1.89Zm12-17.26c.1.3.2.65.29,1C317,70.49,316.87,70.14,316.77,69.84Zm.86-22.65h0l.39,0Zm3.15,17.19h0c.33-.08.65-.16,1-.25C321.43,64.22,321.11,64.3,320.78,64.38ZM332,62.78l0-.19,0,.19Zm4,14.33h0c.1.1.18.22.28.32C336.22,77.33,336.14,77.21,336,77.11Zm9.38,3.45c-.24,0-.48,0-.72,0,.33,0,.66,0,1,0Zm1.63-39.45.27,0c.25,0,.49,0,.73,0C347.72,41.11,347.38,41.1,347.05,41.11Z"/><path class="cls-1" d="M266.93,55.36l12.41-2.13a36.62,36.62,0,0,1,7.84-.71,9.48,9.48,0,0,1,4.38,1.09,5.93,5.93,0,0,1,2.33,2.51,20.7,20.7,0,0,1,1.36,5.07l.56,3.23a11,11,0,0,1-.05,5.35,6.12,6.12,0,0,1-3,3.09,20.76,20.76,0,0,1-6.39,2l-3.31.56,2.57,15-12.32,2.11Zm13.41,4.24L282,69.05c.36,0,.66-.09.91-.14a3.36,3.36,0,0,0,2.25-1,4.06,4.06,0,0,0,.19-2.84l-.52-3c-.22-1.27-.62-2-1.19-2.34A5.8,5.8,0,0,0,280.34,59.6Z"/><path class="cls-1" d="M297,50.19l8.72-1.5a85.41,85.41,0,0,1,11.9-1.5A8.57,8.57,0,0,1,323.12,49c1.55,1.22,2.59,3.42,3.14,6.58.49,2.89.37,4.91-.38,6.07s-2.44,2-5.1,2.71c2.52.06,4.26.41,5.24,1.06A5.7,5.7,0,0,1,328,67.37a27.13,27.13,0,0,1,1.25,5.44l1.69,9.79-11.45,2-2.12-12.34c-.34-2-.75-3.19-1.23-3.59s-1.57-.47-3.27-.17l2.88,16.74-12.32,2.12Zm13.41,4.24,1.42,8.26a6.85,6.85,0,0,0,2.83-.95c.51-.4.62-1.41.34-3.05l-.35-2c-.2-1.17-.6-1.9-1.2-2.18A5.68,5.68,0,0,0,310.42,54.43Z"/><path class="cls-1" d="M361.17,61.55a64.21,64.21,0,0,1,1,8,7.9,7.9,0,0,1-1.37,4.61,11.47,11.47,0,0,1-4.28,3.78,21.82,21.82,0,0,1-6.84,2.24,22.24,22.24,0,0,1-7,.2,11.5,11.5,0,0,1-5.38-2.09,8,8,0,0,1-2.92-3.86,62.72,62.72,0,0,1-1.73-8l-1.09-6.35a66.59,66.59,0,0,1-1-8,8,8,0,0,1,1.38-4.61,11.43,11.43,0,0,1,4.27-3.78,21.89,21.89,0,0,1,6.85-2.24,22.54,22.54,0,0,1,7-.2,11.42,11.42,0,0,1,5.37,2.09,8,8,0,0,1,2.93,3.86,62.72,62.72,0,0,1,1.73,8ZM346.75,51.47a9,9,0,0,0-.93-3.25,1.55,1.55,0,0,0-1.63-.47,1.87,1.87,0,0,0-1.38.84c-.27.45-.25,1.63.08,3.54l3,17.34a13.57,13.57,0,0,0,1,3.93,1.55,1.55,0,0,0,1.7.49c.84-.14,1.32-.52,1.46-1.15a15.08,15.08,0,0,0-.36-4.21Z"/></g></g></svg>